<?xml version="1.0" encoding="UTF-8" standalone="no"?>
<!DOCTYPE svg PUBLIC "-//W3C//DTD SVG 1.1//EN" "http://www.w3.org/Graphics/SVG/1.1/DTD/svg11.dtd">
<svg width="100%" height="100%" viewBox="0 0 3600 3600" version="1.1" xmlns="http://www.w3.org/2000/svg" xmlns:xlink="http://www.w3.org/1999/xlink" xml:space="preserve" xmlns:serif="http://www.serif.com/" style="fill-rule:evenodd;clip-rule:evenodd;stroke-linejoin:round;stroke-miterlimit:2;">
    <g transform="matrix(1.70243,0,0,1.70243,-5530.33,-8925.18)">
        <rect x="3248.5" y="5242.62" width="2114.63" height="2114.63" style="fill:white;"/>
    </g>
    <g transform="matrix(-1.42483,0.00882252,-0.00773646,-1.24943,7379.52,6439.36)">
        <path d="M3313.04,3831.6C3314.96,3831.92 3316.65,3833.14 3317.72,3835.03L3357.62,3911.47C3358.31,3912.89 3358.36,3913.37 3358.45,3914.28C3358.82,3917.89 3356.39,3921.6 3353.14,3922.12C3352.76,3922.18 3352.66,3922.18 3352.27,3922.19L3272.48,3922.19C3271.05,3922.13 3270.66,3921.94 3269.93,3921.57C3267.03,3920.09 3265.47,3915.82 3266.74,3912.36C3266.89,3911.95 3266.94,3911.86 3267.13,3911.47L3307.03,3835.03C3308.33,3832.72 3310.62,3831.41 3313.04,3831.6Z" style="fill:rgb(27,223,142);fill-rule:nonzero;"/>
    </g>
    <g transform="matrix(1.10838,0.895383,-0.78516,0.971941,1240.91,-6416.92)">
        <path d="M3313.04,3831.6C3314.96,3831.92 3316.65,3833.14 3317.72,3835.03L3357.62,3911.47C3358.31,3912.89 3358.36,3913.37 3358.45,3914.28C3358.82,3917.89 3356.39,3921.6 3353.14,3922.12C3352.76,3922.18 3352.66,3922.18 3352.27,3922.19L3272.48,3922.19C3271.05,3922.13 3270.66,3921.94 3269.93,3921.57C3267.03,3920.09 3265.47,3915.82 3266.74,3912.36C3266.89,3911.95 3266.94,3911.86 3267.13,3911.47L3307.03,3835.03C3308.33,3832.72 3310.62,3831.41 3313.04,3831.6Z" style="fill-rule:nonzero;"/>
    </g>
    <g transform="matrix(0.856193,8.30549e-17,-1.72152e-16,0.856193,-1918.08,-3188.22)">
        <path d="M3535.47,3889.04C3572.2,3889.36 3607.82,3911.17 3624.46,3944.61C3643.02,3981.93 3635.52,4030.59 3604.71,4060.66C3577.14,4087.57 3533.28,4096.55 3497.01,4081.72C3464.93,4068.6 3440.63,4037.86 3435.75,4003.04C3429.86,3960.97 3453.29,3916.45 3493.1,3898.14C3506.31,3892.07 3520.88,3888.98 3535.47,3889.04ZM3534.51,3941.16C3516.19,3941.32 3498.41,3952.75 3490.89,3969.93C3485.03,3983.29 3485.76,3999.34 3492.82,4012.14C3503.89,4032.24 3530.5,4042.64 3552.92,4033.47C3573.22,4025.18 3586.26,4002.01 3581.84,3979.7C3577.65,3958.59 3557.75,3941.66 3535.76,3941.17C3535.34,3941.16 3534.93,3941.16 3534.51,3941.16Z" style="fill-rule:nonzero;"/>
    </g>
    <g transform="matrix(-0.60542,-0.60542,-0.60542,0.60542,5188.31,2564.29)">
        <path d="M3535.47,3889.04C3577.47,3889.4 3617.47,3917.88 3630.37,3959.33C3635,3974.18 3638.13,3991.58 3630.8,4003.09C3623.28,4014.89 3605.49,4018.64 3593.78,4010.37C3586.59,4005.29 3582.98,3996.41 3582.73,3987.52C3582.03,3967.61 3567.66,3948.83 3548.52,3943.14C3526.64,3936.62 3500.74,3947.76 3491.01,3969.64C3488.28,3975.76 3486.92,3982.45 3486.91,3989.16L3486.87,3990.4C3485.88,4003.72 3474.17,4015.18 3460.77,4015.14C3447.52,4015.11 3435.4,4003.57 3434.81,3990.25C3433.44,3959.6 3449.81,3927.01 3476.41,3907.86C3493.47,3895.57 3514.75,3888.96 3535.47,3889.04Z" style="fill-rule:nonzero;"/>
    </g>
    <g transform="matrix(-0.0334192,-0.777181,0.800683,-0.0344298,2564.76,4288.35)">
        <path d="M2096.53,239.176C2097.37,235.026 2098.08,230.814 2097.59,226.61C2096.03,213.421 2085.91,201.666 2072.46,197.941C2072.46,197.941 2071.04,197.552 2071.04,197.552C2055.62,192.698 2046.35,174.265 2053.35,159.371C2058.01,149.451 2068.87,142.89 2080.46,143.104C2083.34,143.249 2083.82,143.383 2085.12,143.636C2112.9,149.076 2137.73,170.872 2148.6,197.267C2155.81,214.771 2157.38,234.847 2152.24,252.8C2148.2,270.271 2157.66,289.845 2176.55,294.894C2213.33,302.976 2242.78,339.106 2244.8,376.63C2245.32,386.261 2244.84,396.605 2241.7,405.206C2238.45,422.266 2247.98,440.968 2266.44,445.821C2266.44,445.821 2274.03,448.251 2278.6,452.425C2288.12,461.129 2290.3,476.529 2283.26,487.462C2276.5,497.94 2262.37,502.646 2249.81,499.13C2213.44,488.953 2185.36,455.569 2183.32,417.878C2182.82,408.589 2183.34,398.595 2186.27,390.105C2187.12,385.856 2187.84,381.57 2187.31,377.294C2185.68,364.201 2175.64,352.543 2162.21,348.824L2160.78,348.432L2160.68,348.395L2160.06,348.247C2123.57,338.037 2095.6,304.479 2093.58,266.995C2093.08,257.683 2093.59,247.66 2096.53,239.176Z"/>
    </g>
    <g transform="matrix(0.225707,0.855138,-0.941462,0.248492,4124.72,-2263.57)">
        <path d="M5087.44,4104.05C5087.44,4091.49 5076.2,4081.28 5062.37,4081.28C5048.53,4081.28 5037.3,4091.49 5037.3,4104.05L5037.3,4253.51C5037.3,4266.08 5048.53,4276.28 5062.37,4276.28C5076.2,4276.28 5087.44,4266.08 5087.44,4253.51L5087.44,4104.05Z"/>
    </g>
    <g transform="matrix(-0.60542,-0.60542,0.60542,-0.60542,3159.93,6275.72)">
        <path d="M3535.47,3889.04C3577.47,3889.4 3617.47,3917.88 3630.37,3959.33C3635,3974.18 3638.13,3991.58 3630.8,4003.09C3623.28,4014.89 3605.49,4018.64 3593.78,4010.37C3586.59,4005.29 3582.98,3996.41 3582.73,3987.52C3582.03,3967.61 3567.66,3948.83 3548.52,3943.14C3526.64,3936.62 3500.74,3947.76 3491.01,3969.64C3488.28,3975.76 3486.92,3982.45 3486.91,3989.16L3486.87,3990.4C3485.88,4003.72 3474.17,4015.18 3460.77,4015.14C3447.52,4015.11 3435.4,4003.57 3434.81,3990.25C3433.44,3959.6 3449.81,3927.01 3476.41,3907.86C3493.47,3895.57 3514.75,3888.96 3535.47,3889.04Z" style="fill:rgb(27,223,142);fill-rule:nonzero;"/>
    </g>
    <g transform="matrix(-0.777899,-5.37863e-17,5.128e-17,0.801423,3048.42,2081.66)">
        <path d="M2096.53,239.176C2097.37,235.026 2098.08,230.814 2097.59,226.61C2096.03,213.421 2085.91,201.666 2072.46,197.941C2072.46,197.941 2071.04,197.552 2071.04,197.552C2055.62,192.698 2046.35,174.265 2053.35,159.371C2058.01,149.451 2068.87,142.89 2080.46,143.104C2083.34,143.249 2083.82,143.383 2085.12,143.636C2112.9,149.076 2137.73,170.872 2148.6,197.267C2155.81,214.771 2157.38,234.847 2152.24,252.8C2148.2,270.271 2157.66,289.845 2176.55,294.894C2213.33,302.976 2242.78,339.106 2244.8,376.63C2245.32,386.261 2244.84,396.605 2241.7,405.206C2238.45,422.266 2247.98,440.968 2266.44,445.821C2266.44,445.821 2274.03,448.251 2278.6,452.425C2288.12,461.129 2290.3,476.529 2283.26,487.462C2276.5,497.94 2262.37,502.646 2249.81,499.13C2213.44,488.953 2185.36,455.569 2183.32,417.878C2182.82,408.589 2183.34,398.595 2186.27,390.105C2187.12,385.856 2187.84,381.57 2187.31,377.294C2185.68,364.201 2175.64,352.543 2162.21,348.824L2160.78,348.432L2160.68,348.395L2160.06,348.247C2123.57,338.037 2095.6,304.479 2093.58,266.995C2093.08,257.683 2093.59,247.66 2096.53,239.176Z"/>
    </g>
    <g transform="matrix(-0.881484,0.512845,-0.512845,-0.881484,7062.84,358.213)">
        <path d="M3791.82,2161.09L3791.82,2120.49C3791.82,2108.56 3801.5,2098.88 3813.43,2098.88C3825.35,2098.88 3835.03,2108.56 3835.03,2120.49L3835.03,2161.09L3875.63,2161.09C3887.57,2161.11 3897.23,2170.78 3897.23,2182.69C3897.23,2194.62 3887.55,2204.3 3875.63,2204.3L3835.03,2204.3L3835.03,2244.9C3835.03,2256.82 3825.35,2266.5 3813.43,2266.5C3801.5,2266.5 3791.82,2256.82 3791.82,2244.9L3791.82,2204.3L3751.22,2204.3C3739.3,2204.3 3729.62,2194.62 3729.62,2182.69C3729.62,2170.78 3739.28,2161.11 3751.22,2161.09L3791.82,2161.09Z" style="fill:rgb(27,223,142);"/>
    </g>
    <g transform="matrix(0.843715,0.265233,-0.292008,0.928887,289.794,-2186.21)">
        <path d="M5087.44,4104.05C5087.44,4091.49 5076.2,4081.28 5062.37,4081.28C5048.53,4081.28 5037.3,4091.49 5037.3,4104.05L5037.3,4253.51C5037.3,4266.08 5048.53,4276.28 5062.37,4276.28C5076.2,4276.28 5087.44,4266.08 5087.44,4253.51L5087.44,4104.05Z" style="fill:rgb(27,223,142);"/>
    </g>
    <g transform="matrix(0.159804,-0.869866,0.957677,0.175936,-2611.65,5630.07)">
        <path d="M5087.44,4104.05C5087.44,4091.49 5076.2,4081.28 5062.37,4081.28C5048.53,4081.28 5037.3,4091.49 5037.3,4104.05L5037.3,4253.51C5037.3,4266.08 5048.53,4276.28 5062.37,4276.28C5076.2,4276.28 5087.44,4266.08 5087.44,4253.51L5087.44,4104.05Z"/>
    </g>
    <g transform="matrix(0.637428,-0.613099,0.67499,0.701775,-5901.17,2489.02)">
        <path d="M5087.44,4104.05C5087.44,4091.49 5076.2,4081.28 5062.37,4081.28C5048.53,4081.28 5037.3,4091.49 5037.3,4104.05L5037.3,4253.51C5037.3,4266.08 5048.53,4276.28 5062.37,4276.28C5076.2,4276.28 5087.44,4266.08 5087.44,4253.51L5087.44,4104.05Z" style="fill:rgb(27,223,142);"/>
    </g>
    <g transform="matrix(1.01185,0.127208,-0.127208,1.01185,-3213.06,-1629.61)">
        <path d="M3791.82,2161.09L3791.82,2120.49C3791.82,2108.56 3801.5,2098.88 3813.43,2098.88C3825.35,2098.88 3835.03,2108.56 3835.03,2120.49L3835.03,2161.09L3875.63,2161.09C3887.57,2161.11 3897.23,2170.78 3897.23,2182.69C3897.23,2194.62 3887.55,2204.3 3875.63,2204.3L3835.03,2204.3L3835.03,2244.9C3835.03,2256.82 3825.35,2266.5 3813.43,2266.5C3801.5,2266.5 3791.82,2256.82 3791.82,2244.9L3791.82,2204.3L3751.22,2204.3C3739.3,2204.3 3729.62,2194.62 3729.62,2182.69C3729.62,2170.78 3739.28,2161.11 3751.22,2161.09L3791.82,2161.09Z"/>
    </g>
    <g transform="matrix(2.24578e-16,-0.856193,-0.856193,-1.35482e-16,4892.61,4706.84)">
        <path d="M3535.47,3889.04C3572.2,3889.36 3607.82,3911.17 3624.46,3944.61C3643.02,3981.93 3635.52,4030.59 3604.71,4060.66C3577.14,4087.57 3533.28,4096.55 3497.01,4081.72C3464.93,4068.6 3440.63,4037.86 3435.75,4003.04C3429.86,3960.97 3453.29,3916.45 3493.1,3898.14C3506.31,3892.07 3520.88,3888.98 3535.47,3889.04ZM3534.51,3941.16C3516.19,3941.32 3498.41,3952.75 3490.89,3969.93C3485.03,3983.29 3485.76,3999.34 3492.82,4012.14C3503.89,4032.24 3530.5,4042.64 3552.92,4033.47C3573.22,4025.18 3586.26,4002.01 3581.84,3979.7C3577.65,3958.59 3557.75,3941.66 3535.76,3941.17C3535.34,3941.16 3534.93,3941.16 3534.51,3941.16Z" style="fill:rgb(27,223,142);fill-rule:nonzero;"/>
    </g>
    <g transform="matrix(2.24578e-16,-0.856193,-0.856193,-1.35482e-16,3719.08,6315.7)">
        <path d="M3535.47,3889.04C3572.2,3889.36 3607.82,3911.17 3624.46,3944.61C3643.02,3981.93 3635.52,4030.59 3604.71,4060.66C3577.14,4087.57 3533.28,4096.55 3497.01,4081.72C3464.93,4068.6 3440.63,4037.86 3435.75,4003.04C3429.86,3960.97 3453.29,3916.45 3493.1,3898.14C3506.31,3892.07 3520.88,3888.98 3535.47,3889.04ZM3534.51,3941.16C3516.19,3941.32 3498.41,3952.75 3490.89,3969.93C3485.03,3983.29 3485.76,3999.34 3492.82,4012.14C3503.89,4032.24 3530.5,4042.64 3552.92,4033.47C3573.22,4025.18 3586.26,4002.01 3581.84,3979.7C3577.65,3958.59 3557.75,3941.66 3535.76,3941.17C3535.34,3941.16 3534.93,3941.16 3534.51,3941.16Z" style="fill:rgb(27,223,142);fill-rule:nonzero;"/>
    </g>
    <g transform="matrix(0.620001,-0.590478,-0.590478,-0.620001,2277.73,5727.45)">
        <path d="M3535.47,3889.04C3577.47,3889.4 3617.47,3917.88 3630.37,3959.33C3635,3974.18 3638.13,3991.58 3630.8,4003.09C3623.28,4014.89 3605.49,4018.64 3593.78,4010.37C3586.59,4005.29 3582.98,3996.41 3582.73,3987.52C3582.03,3967.61 3567.66,3948.83 3548.52,3943.14C3526.64,3936.62 3500.74,3947.76 3491.01,3969.64C3488.28,3975.76 3486.92,3982.45 3486.91,3989.16L3486.87,3990.4C3485.88,4003.72 3474.17,4015.18 3460.77,4015.14C3447.52,4015.11 3435.4,4003.57 3434.81,3990.25C3433.44,3959.6 3449.81,3927.01 3476.41,3907.86C3493.47,3895.57 3514.75,3888.96 3535.47,3889.04Z" style="fill-rule:nonzero;"/>
    </g>
    <g transform="matrix(-1.33215,0.505578,0.443341,1.16816,4712.51,-3386.8)">
        <path d="M3313.04,3831.6C3314.96,3831.92 3316.65,3833.14 3317.72,3835.03L3357.62,3911.47C3358.31,3912.89 3358.36,3913.37 3358.45,3914.28C3358.82,3917.89 3356.39,3921.6 3353.14,3922.12C3352.76,3922.18 3352.66,3922.18 3352.27,3922.19L3272.48,3922.19C3271.05,3922.13 3270.66,3921.94 3269.93,3921.57C3267.03,3920.09 3265.47,3915.82 3266.74,3912.36C3266.89,3911.95 3266.94,3911.86 3267.13,3911.47L3307.03,3835.03C3308.33,3832.72 3310.62,3831.41 3313.04,3831.6Z" style="fill:rgb(27,223,142);fill-rule:nonzero;"/>
    </g>
    <g transform="matrix(-0.60542,0.60542,0.60542,0.60542,2942.52,-4304.26)">
        <path d="M3535.47,3889.04C3577.47,3889.4 3617.47,3917.88 3630.37,3959.33C3635,3974.18 3638.13,3991.58 3630.8,4003.09C3623.28,4014.89 3605.49,4018.64 3593.78,4010.37C3586.59,4005.29 3582.98,3996.41 3582.73,3987.52C3582.03,3967.61 3567.66,3948.83 3548.52,3943.14C3526.64,3936.62 3500.74,3947.76 3491.01,3969.64C3488.28,3975.76 3486.92,3982.45 3486.91,3989.16L3486.87,3990.4C3485.88,4003.72 3474.17,4015.18 3460.77,4015.14C3447.52,4015.11 3435.4,4003.57 3434.81,3990.25C3433.44,3959.6 3449.81,3927.01 3476.41,3907.86C3493.47,3895.57 3514.75,3888.96 3535.47,3889.04Z" style="fill-rule:nonzero;"/>
    </g>
    <g transform="matrix(-0.405565,-1.36592,1.19778,-0.35564,-2518.99,7361.75)">
        <path d="M3313.04,3831.6C3314.96,3831.92 3316.65,3833.14 3317.72,3835.03L3357.62,3911.47C3358.31,3912.89 3358.36,3913.37 3358.45,3914.28C3358.82,3917.89 3356.39,3921.6 3353.14,3922.12C3352.76,3922.18 3352.66,3922.18 3352.27,3922.19L3272.48,3922.19C3271.05,3922.13 3270.66,3921.94 3269.93,3921.57C3267.03,3920.09 3265.47,3915.82 3266.74,3912.36C3266.89,3911.95 3266.94,3911.86 3267.13,3911.47L3307.03,3835.03C3308.33,3832.72 3310.62,3831.41 3313.04,3831.6Z" style="fill:rgb(27,223,142);fill-rule:nonzero;"/>
    </g>
    <g transform="matrix(0.986066,-0.260187,0.260187,0.986066,-1760.87,2053)">
        <path d="M3791.82,2161.09L3791.82,2120.49C3791.82,2108.56 3801.5,2098.88 3813.43,2098.88C3825.35,2098.88 3835.03,2108.56 3835.03,2120.49L3835.03,2161.09L3875.63,2161.09C3887.57,2161.11 3897.23,2170.78 3897.23,2182.69C3897.23,2194.62 3887.55,2204.3 3875.63,2204.3L3835.03,2204.3L3835.03,2244.9C3835.03,2256.82 3825.35,2266.5 3813.43,2266.5C3801.5,2266.5 3791.82,2256.82 3791.82,2244.9L3791.82,2204.3L3751.22,2204.3C3739.3,2204.3 3729.62,2194.62 3729.62,2182.69C3729.62,2170.78 3739.28,2161.11 3751.22,2161.09L3791.82,2161.09Z"/>
    </g>
    <g transform="matrix(0.270505,0.729352,-0.751408,0.278685,-10.3338,-1229.36)">
        <path d="M2096.53,239.176C2097.37,235.026 2098.08,230.814 2097.59,226.61C2096.03,213.421 2085.91,201.666 2072.46,197.941C2072.46,197.941 2071.04,197.552 2071.04,197.552C2055.62,192.698 2046.35,174.265 2053.35,159.371C2058.01,149.451 2068.87,142.89 2080.46,143.104C2083.34,143.249 2083.82,143.383 2085.12,143.636C2112.9,149.076 2137.73,170.872 2148.6,197.267C2155.81,214.771 2157.38,234.847 2152.24,252.8C2148.2,270.271 2157.66,289.845 2176.55,294.894C2213.33,302.976 2242.78,339.106 2244.8,376.63C2245.32,386.261 2244.84,396.605 2241.7,405.206C2238.45,422.266 2247.98,440.968 2266.44,445.821C2266.44,445.821 2274.03,448.251 2278.6,452.425C2288.12,461.129 2290.3,476.529 2283.26,487.462C2276.5,497.94 2262.37,502.646 2249.81,499.13C2213.44,488.953 2185.36,455.569 2183.32,417.878C2182.82,408.589 2183.34,398.595 2186.27,390.105C2187.12,385.856 2187.84,381.57 2187.31,377.294C2185.68,364.201 2175.64,352.543 2162.21,348.824L2160.78,348.432L2160.68,348.395L2160.06,348.247C2123.57,338.037 2095.6,304.479 2093.58,266.995C2093.08,257.683 2093.59,247.66 2096.53,239.176Z" style="fill:rgb(27,223,142);"/>
    </g>
    <g transform="matrix(2.24578e-16,-0.856193,-0.856193,-1.35482e-16,6650.87,4089.49)">
        <path d="M3535.47,3889.04C3572.2,3889.36 3607.82,3911.17 3624.46,3944.61C3643.02,3981.93 3635.52,4030.59 3604.71,4060.66C3577.14,4087.57 3533.28,4096.55 3497.01,4081.72C3464.93,4068.6 3440.63,4037.86 3435.75,4003.04C3429.86,3960.97 3453.29,3916.45 3493.1,3898.14C3506.31,3892.07 3520.88,3888.98 3535.47,3889.04ZM3534.51,3941.16C3516.19,3941.32 3498.41,3952.75 3490.89,3969.93C3485.03,3983.29 3485.76,3999.34 3492.82,4012.14C3503.89,4032.24 3530.5,4042.64 3552.92,4033.47C3573.22,4025.18 3586.26,4002.01 3581.84,3979.7C3577.65,3958.59 3557.75,3941.66 3535.76,3941.17C3535.34,3941.16 3534.93,3941.16 3534.51,3941.16Z" style="fill-rule:nonzero;"/>
    </g>
    <g transform="matrix(-0.63433,-0.616303,0.678517,-0.698365,1694.74,6714.61)">
        <path d="M5087.44,4104.05C5087.44,4091.49 5076.2,4081.28 5062.37,4081.28C5048.53,4081.28 5037.3,4091.49 5037.3,4104.05L5037.3,4253.51C5037.3,4266.08 5048.53,4276.28 5062.37,4276.28C5076.2,4276.28 5087.44,4266.08 5087.44,4253.51L5087.44,4104.05Z" style="fill:rgb(27,223,142);"/>
    </g>
    <g transform="matrix(1.08916,0,0,1.08916,-2696.16,-5157.72)">
        <circle cx="3937.12" cy="5746.4" r="24.957"/>
    </g>
    <g transform="matrix(1.08916,0,0,1.08916,-4046.38,-4465.63)">
        <circle cx="3937.12" cy="5746.4" r="24.957"/>
    </g>
    <g transform="matrix(1.08916,0,0,1.08916,-3492.91,-4015.52)">
        <circle cx="3937.12" cy="5746.4" r="24.957"/>
    </g>
    <g transform="matrix(1.08916,0,0,1.08916,-2360.37,-3895.45)">
        <circle cx="3937.12" cy="5746.4" r="24.957"/>
    </g>
    <g transform="matrix(1.08916,0,0,1.08916,-1338.39,-4255.98)">
        <circle cx="3937.12" cy="5746.4" r="24.957"/>
    </g>
    <g transform="matrix(1.08916,0,0,1.08916,-1695.46,-5364.13)">
        <circle cx="3937.12" cy="5746.4" r="24.957"/>
    </g>
    <g transform="matrix(1.08916,0,0,1.08916,-3500.46,-5607.18)">
        <circle cx="3937.12" cy="5746.4" r="24.957"/>
    </g>
    <g transform="matrix(1.08916,0,0,1.08916,-4203.78,-6044.11)">
        <circle cx="3937.12" cy="5746.4" r="24.957"/>
    </g>
    <g transform="matrix(1.08916,0,0,1.08916,-806.089,-3746.65)">
        <circle cx="3937.12" cy="5746.4" r="24.957"/>
    </g>
    <g transform="matrix(1.08916,0,0,1.08916,-1183.32,-2841.39)">
        <circle cx="3937.12" cy="5746.4" r="24.957"/>
    </g>
    <g transform="matrix(1.08916,0,0,1.08916,-3484.25,-2730.14)">
        <circle cx="3937.12" cy="5746.4" r="24.957"/>
    </g>
    <g transform="matrix(1.08916,0,0,1.08916,-2414.74,-2939.88)">
        <circle cx="3937.12" cy="5746.4" r="24.957"/>
    </g>
</svg>
